<?xml version="1.0" encoding="UTF-8"?>
<svg width="456" height="456" viewBox="0 0 456 456" fill="none" xmlns="http://www.w3.org/2000/svg">
    <!-- Radio waves -->
    <path d="M228 120C280.5 120 322 161.5 322 214" stroke="white" stroke-width="8" fill="none" stroke-linecap="round"/>
    <path d="M228 140C269.4 140 302 172.6 302 214" stroke="white" stroke-width="8" fill="none" stroke-linecap="round"/>
    <path d="M228 160C258.4 160 282 183.6 282 214" stroke="white" stroke-width="8" fill="none" stroke-linecap="round"/>
    
    <!-- Reverse waves -->
    <path d="M228 120C175.5 120 134 161.5 134 214" stroke="white" stroke-width="8" fill="none" stroke-linecap="round"/>
    <path d="M228 140C186.6 140 154 172.6 154 214" stroke="white" stroke-width="8" fill="none" stroke-linecap="round"/>
    <path d="M228 160C197.6 160 174 183.6 174 214" stroke="white" stroke-width="8" fill="none" stroke-linecap="round"/>
    
    <!-- Central antenna -->
    <circle cx="228" cy="214" r="15" fill="white"/>
    <rect x="220" y="175" width="16" height="39" fill="white"/>
    <rect x="212" y="165" width="32" height="12" fill="white"/>
</svg>