<?xml version="1.0" encoding="UTF-8"?>
<svg width="456" height="456" viewBox="0 0 456 456" fill="none" xmlns="http://www.w3.org/2000/svg">
    <rect width="456" height="456" rx="128" fill="#1976D2"/>
    
    <!-- Radio waves -->
    <path d="M228 120C280.5 120 322 161.5 322 214" stroke="white" stroke-width="6" fill="none" stroke-linecap="round"/>
    <path d="M228 140C269.4 140 302 172.6 302 214" stroke="white" stroke-width="6" fill="none" stroke-linecap="round"/>
    <path d="M228 160C258.4 160 282 183.6 282 214" stroke="white" stroke-width="6" fill="none" stroke-linecap="round"/>
    
    <!-- Reverse waves -->
    <path d="M228 120C175.5 120 134 161.5 134 214" stroke="white" stroke-width="6" fill="none" stroke-linecap="round"/>
    <path d="M228 140C186.6 140 154 172.6 154 214" stroke="white" stroke-width="6" fill="none" stroke-linecap="round"/>
    <path d="M228 160C197.6 160 174 183.6 174 214" stroke="white" stroke-width="6" fill="none" stroke-linecap="round"/>
    
    <!-- Central antenna -->
    <circle cx="228" cy="214" r="12" fill="white"/>
    <rect x="222" y="180" width="12" height="34" fill="white"/>
    <rect x="216" y="170" width="24" height="10" fill="white"/>
    
    <!-- Control panel -->
    <rect x="158" y="260" width="140" height="80" rx="8" fill="white" fill-opacity="0.9"/>
    
    <!-- Control buttons -->
    <circle cx="180" cy="285" r="8" fill="#1976D2"/>
    <circle cx="210" cy="285" r="8" fill="#1976D2"/>
    <circle cx="240" cy="285" r="8" fill="#1976D2"/>
    <circle cx="270" cy="285" r="8" fill="#1976D2"/>
    
    <!-- Frequency display -->
    <rect x="168" y="305" width="120" height="20" rx="4" fill="#333"/>
    <text x="228" y="318" text-anchor="middle" fill="white" font-family="monospace" font-size="12">100.0 MHz</text>
</svg>